<svg xmlns="http://www.w3.org/2000/svg" viewBox="0 0 389.1741 193.41342"><defs><style>.a{fill:#5accf1;}.b{fill:#fff;}</style></defs><rect class="a" width="389.1741" height="193.41342" rx="89.66064"/><path class="b" d="M129.95562,132.28357H117.99273V96.00427a21.86429,21.86429,0,0,0-.8789-6.51855,11.3217,11.3217,0,0,0-2.78321-4.71192,12.10477,12.10477,0,0,0-4.88281-2.88086,23.39556,23.39556,0,0,0-7.22656-.97656,119.47278,119.47278,0,0,0-12.25586.58594v29.6875a47.42394,47.42394,0,0,1-.80567,9.15527,18.75931,18.75931,0,0,1-2.73437,6.9336,12.67152,12.67152,0,0,1-5.15137,4.39453,18.66784,18.66784,0,0,1-8.05664,1.53808q-2.19726,0-3.90625-.17089a25.9629,25.9629,0,0,1-3.36914-.56153l1.36719-8.98437q.92724.19629,1.75781.293a15.43224,15.43224,0,0,0,1.80664.09765,5.80654,5.80654,0,0,0,5.81055-3.61328,13.38833,13.38833,0,0,0,1.0498-4.02832,44.16176,44.16176,0,0,0,.26856-5.05371V82.86951L70.67828,84.139,71.899,73.73865q3.61232-.63428,7.47071-1.07422,3.85692-.43945,7.8125-.708,3.95506-.26806,7.88574-.39062,3.93018-.12159,7.69043-.12207a41.9333,41.9333,0,0,1,11.05957,1.36718,22.97776,22.97776,0,0,1,8.59375,4.29688,19.41341,19.41341,0,0,1,5.5664,7.54394,28.12625,28.12625,0,0,1,1.97754,11.1084Z"/><path class="b" d="M157.05523,132.28357H145.33648V72.2738h11.71875Z"/><path class="b" d="M192.69976,132.28357V94.24646a29.39782,29.39782,0,0,1,.80567-7.12891,11.96759,11.96759,0,0,1,3.34472-5.71289q-2.63672.19629-5.127.26856-2.49022.07325-5.07812.07324H166.03961l1.51367-9.47266h46.97266l-1.22071,9.47266h-1.709a7.96023,7.96023,0,0,0-3.66211.73242,5.25614,5.25614,0,0,0-2.19727,2.09961,9.18045,9.18045,0,0,0-1.0498,3.34473,33.34467,33.34467,0,0,0-.26856,4.46777v39.89258Z"/><path class="b" d="M237.231,132.28357H225.51226V72.2738H237.231Z"/><path class="b" d="M286.05914,102.79138a24.698,24.698,0,0,0,2.53906-2.51465,13.5227,13.5227,0,0,0,2.00195-3.07617,18.38705,18.38705,0,0,0,1.31836-3.90625,22.73549,22.73549,0,0,0,.48829-4.956V72.2738h11.71875V88.33826a22.68619,22.68619,0,0,1-1.14747,7.39746,25.59083,25.59083,0,0,1-2.97851,6.05469,27.818,27.818,0,0,1-4.15039,4.85839,58.7769,58.7769,0,0,1-4.66309,3.90625q1.07373,1.563,2.29492,3.32032,1.22022,1.7578,2.49024,3.56445,1.26855,1.80762,2.51465,3.61328,1.2451,1.80762,2.417,3.4668,2.68506,3.85839,5.41992,7.76367H292.65094q-4.10157-6.20069-8.252-12.35352-1.75781-2.63671-3.71093-5.49316-1.95411-2.85645-3.95508-5.73731-2.00244-2.87988-3.9795-5.63964-1.97753-2.7583-3.78417-5.2002a19.81211,19.81211,0,0,0-2.66114,3.44238,13.80313,13.80313,0,0,0-1.48926,3.51563,20.83132,20.83132,0,0,0-.63476,3.93066q-.14649,2.10058-.14649,4.63867v18.89649H252.3189V113.38708a35.84714,35.84714,0,0,1,.708-7.61718,22.70991,22.70991,0,0,1,2.09961-5.835,24.439,24.439,0,0,1,3.4668-4.90723q2.07422-2.29395,4.80957-4.78516L251.97711,76.13123q2.19726-1.0254,4.19922-1.9043,1.708-.78077,3.56445-1.58692,1.8545-.80565,2.97852-1.29394,4.05176,5.127,7.61718,9.86328,3.564,4.7373,6.56739,8.78906,3.00293,4.05322,5.32226,7.32422Q284.545,100.59509,286.05914,102.79138Z"/></svg>