<svg xmlns="http://www.w3.org/2000/svg" viewBox="0 0 292.25 120.37"><defs><style>.cls-1{fill:#d8b74e;}.cls-2{fill:#9b751f;opacity:0.5;}.cls-3{fill:#fff;}</style></defs><g id="Layer_4" data-name="Layer 4"><path class="cls-1" d="M272.86,14.09C261.81,4.27,248,.29,242.56.17L234.14,0h-88.8L49.82.43a56.67,56.67,0,0,0-19,5.85A57.39,57.39,0,0,0,13.12,20.52C1.26,34.88.3,51.23.06,56.57c-.2,4.42-1,31.67,19.33,49.71,11.05,9.82,24.85,13.8,30.3,13.92l8.42.17h88.8l95.52-.42a56.67,56.67,0,0,0,19-5.85,57.39,57.39,0,0,0,17.73-14.24C291,85.49,292,69.14,292.19,63.8,292.39,59.38,293.16,32.13,272.86,14.09Z"/><rect class="cls-2" x="136.82" y="6.42" width="8.43" height="107.53" rx="4.21"/><path class="cls-3" d="M93.57,66.08a23.09,23.09,0,0,1-1.46,6.52A12.8,12.8,0,0,1,89,77.3a12.94,12.94,0,0,1-5,2.83,23.28,23.28,0,0,1-7,1H71.61l2-5.85h2.26a14.92,14.92,0,0,0,4.38-.57,7.82,7.82,0,0,0,3.12-1.76,8.09,8.09,0,0,0,2-3,16,16,0,0,0,1-4.3l.91-9.27a4.25,4.25,0,0,0,.06-.67v-.6a6.57,6.57,0,0,0-.41-2.47A3.67,3.67,0,0,0,85.68,51a5,5,0,0,0-1.94-.84,12.59,12.59,0,0,0-2.67-.26H65.5V30h7.38V44.06H82.4a20.77,20.77,0,0,1,5.06.57,11.1,11.1,0,0,1,3.87,1.76,7.83,7.83,0,0,1,2.47,3,9.89,9.89,0,0,1,.86,4.27c0,.23,0,.45,0,.67s0,.45,0,.69Z"/><path class="cls-3" d="M109.93,81.08H102.7v-37h7.23Z"/><path class="cls-3" d="M140.23,81.08H133.1l-.91-12.35a12.94,12.94,0,0,0-3.36,1.76A9.89,9.89,0,0,0,126.5,73a15.62,15.62,0,0,0-1.66,3.48c-.46,1.32-.9,2.85-1.32,4.58h-7.66c.51-1.89,1-3.58,1.53-5.06a30.42,30.42,0,0,1,1.68-4,17.61,17.61,0,0,1,2.07-3.2,15.19,15.19,0,0,1,2.65-2.53,20.39,20.39,0,0,1,3.46-2,39,39,0,0,1,4.46-1.73l-.6-7.14a8.12,8.12,0,0,0-.59-2.65A4.17,4.17,0,0,0,129.24,51a5,5,0,0,0-2-.87,13.68,13.68,0,0,0-2.82-.26h-6l.88-5.84h5.63a26.59,26.59,0,0,1,5.08.45,10.53,10.53,0,0,1,4,1.62,8.62,8.62,0,0,1,2.76,3.24,14.42,14.42,0,0,1,1.33,5.32Z"/><path class="cls-3" d="M173.07,81.08h-7.38V58.73q0-4.53-2.2-6.93t-7.14-2.41a48.36,48.36,0,0,0-6.46.42q-3.12.42-6.52,1.08l.81-6.17q2.81-.51,6.15-.85c2.23-.22,4.49-.33,6.8-.33a23.35,23.35,0,0,1,6.53.86,13.3,13.3,0,0,1,5,2.68,12.16,12.16,0,0,1,3.24,4.69,18.54,18.54,0,0,1,1.14,6.87Z"/><path class="cls-3" d="M218.2,81.08h-7.38V58.7a13.27,13.27,0,0,0-.55-4,7,7,0,0,0-1.71-2.9,7.42,7.42,0,0,0-3-1.78,14.43,14.43,0,0,0-4.45-.6,74.08,74.08,0,0,0-7.57.36V68.06a29.36,29.36,0,0,1-.49,5.65A11.56,11.56,0,0,1,191.34,78a7.79,7.79,0,0,1-3.18,2.71,11.53,11.53,0,0,1-5,1,21.73,21.73,0,0,1-2.41-.11,16.39,16.39,0,0,1-2.08-.34l.85-5.54q.57.12,1.08.18a9.59,9.59,0,0,0,1.12.06,3.59,3.59,0,0,0,3.58-2.23,8.31,8.31,0,0,0,.65-2.49,27.3,27.3,0,0,0,.16-3.12V50.59l-4.51.79.75-6.42c1.48-.26,3-.48,4.61-.66s3.19-.33,4.82-.44,3.25-.19,4.86-.24,3.2-.08,4.75-.08a25.52,25.52,0,0,1,6.82.85,14,14,0,0,1,5.3,2.65A12,12,0,0,1,217,51.69a17.41,17.41,0,0,1,1.22,6.85Z"/></g></svg>