<svg xmlns="http://www.w3.org/2000/svg" viewBox="0 0 292.25 120.37"><defs><style>.cls-1{fill:#d8b74e;}.cls-2{fill:#9b7d3b;}.cls-3{fill:#fff;}</style></defs><g id="Layer_4" data-name="Layer 4"><path class="cls-1" d="M272.86,14.09C261.81,4.27,248,.29,242.56.17L234.14,0h-88.8L49.82.43a56.67,56.67,0,0,0-19,5.85A57.39,57.39,0,0,0,13.12,20.52C1.26,34.88.3,51.23.06,56.57c-.2,4.42-1,31.67,19.33,49.71,11.05,9.82,24.85,13.8,30.3,13.92l8.42.17h88.8l95.52-.42a56.67,56.67,0,0,0,19-5.85,57.39,57.39,0,0,0,17.73-14.24C291,85.49,292,69.14,292.19,63.8,292.39,59.38,293.16,32.13,272.86,14.09Z"/><rect class="cls-2" x="136.82" y="6.42" width="8.43" height="107.53" rx="4.21"/><path class="cls-3" d="M90.86,81.08H83.48V58.72q0-4.52-2.24-6.92c-1.5-1.61-3.93-2.41-7.31-2.41q-2,0-3.9.15T66.22,50c-1.26.18-2.54.39-3.82.63s-2.61.5-3.95.79l.78-6.27A70.77,70.77,0,0,1,66.54,44a77.43,77.43,0,0,1,8.12-.42,23.54,23.54,0,0,1,6.52.86,13.76,13.76,0,0,1,5.12,2.68,12.41,12.41,0,0,1,3.36,4.69,17.71,17.71,0,0,1,1.2,6.87Zm-24.43,0H59V59.51l7.41-3.59Z"/><path class="cls-3" d="M132.73,61.71a37,37,0,0,1-1.59,8.76,15.28,15.28,0,0,1-3.53,6,14.78,14.78,0,0,1-5.92,3.6,34.31,34.31,0,0,1-8.75,1.6l.85-6.3a25.13,25.13,0,0,0,5-1.17,8.35,8.35,0,0,0,3.39-2.25,10.16,10.16,0,0,0,2.07-3.88,31,31,0,0,0,1.1-6.1l.25-2.56c0-.38.07-.76.09-1.13s0-.73,0-1.07a10.23,10.23,0,0,0-.65-4,5.25,5.25,0,0,0-1.93-2.38,7.87,7.87,0,0,0-3.21-1.16,29.71,29.71,0,0,0-4.52-.3,85.58,85.58,0,0,0-9.58.54q-4.78.54-9.06,1.45l.78-6.27q3.47-.63,8.24-1.1t10.92-.47a33.16,33.16,0,0,1,7.3.7,13.38,13.38,0,0,1,5.11,2.19,9.13,9.13,0,0,1,3,3.88,14.89,14.89,0,0,1,1,5.7c0,.69,0,1.42-.09,2.2Zm-25,34.82h-7.38V58.48h7.38Z"/><path class="cls-3" d="M148.37,65h-7.23v-21h7.23Z"/><path class="cls-3" d="M170.36,81.08V57.61a18.22,18.22,0,0,1,.5-4.4,7.4,7.4,0,0,1,2.06-3.52c-1.08.08-2.14.13-3.16.16s-2.07,0-3.14,0H153.91l.94-5.85h29l-.76,5.85h-1a4.91,4.91,0,0,0-2.26.45,3.22,3.22,0,0,0-1.36,1.3,5.68,5.68,0,0,0-.64,2.06,20.62,20.62,0,0,0-.17,2.76V81.08Z"/><path class="cls-3" d="M217.93,62.64a21.68,21.68,0,0,1-.4,4.37,17.45,17.45,0,0,1-1.06,3.51,14.26,14.26,0,0,1-1.57,2.73,10.94,10.94,0,0,1-1.91,2h7.29l-.79,5.85h-31l.82-5.85h11.14a11.21,11.21,0,0,0,4.84-.92,8,8,0,0,0,3.12-2.57,10.68,10.68,0,0,0,1.67-4,24.24,24.24,0,0,0,.5-5.08V59a11.1,11.1,0,0,0-.8-4.43,7.57,7.57,0,0,0-2.29-3,9.78,9.78,0,0,0-3.62-1.69,19.86,19.86,0,0,0-4.77-.52c-.93,0-1.83,0-2.71.07s-1.77.13-2.64.24-1.76.24-2.66.4-1.85.32-2.84.52l.82-6c.88-.18,1.76-.34,2.65-.48s1.8-.26,2.75-.35,2-.16,3-.21,2.21-.08,3.44-.08a26,26,0,0,1,7,.88,14.3,14.3,0,0,1,5.36,2.68,11.8,11.8,0,0,1,3.42,4.59,16.72,16.72,0,0,1,1.21,6.64Z"/></g></svg>