<svg xmlns="http://www.w3.org/2000/svg" viewBox="0 0 322.74 120.37"><defs><style>.cls-1{fill:#d8b74e;}.cls-2{fill:#9b7d3b;}.cls-3{opacity:0.8;}.cls-4{fill:#fff;}</style></defs><g id="Layer_4" data-name="Layer 4"><path class="cls-1" d="M301.33,14.09C289.12,4.27,273.89.29,267.87.17L258.57,0H160.5L55,.43A67.66,67.66,0,0,0,34.06,6.28,63,63,0,0,0,14.49,20.52C1.4,34.88.33,51.23.07,56.57-.15,61-1,88.24,21.41,106.28c12.21,9.82,27.44,13.8,33.46,13.92l9.31.17h98.06l105.49-.42a67.59,67.59,0,0,0,20.95-5.85,62.87,62.87,0,0,0,19.57-14.24c13.1-14.36,14.16-30.71,14.43-36C322.9,59.38,323.74,32.13,301.33,14.09Z"/><rect class="cls-2" x="157.16" y="7.5" width="8.43" height="107.53" rx="4.21"/><g class="cls-3"><path class="cls-4" d="M137.27,75.56l-1.62,5.58H103.81V45c1.14-.18,2.29-.35,3.44-.51s2.38-.31,3.68-.46,2.7-.25,4.22-.33,3.21-.12,5.07-.12a22.8,22.8,0,0,1,7.25,1.07,15,15,0,0,1,5.35,3,13,13,0,0,1,3.31,4.79,16.74,16.74,0,0,1,1.14,6.34Zm-7.38-.27V58.91a11.22,11.22,0,0,0-.63-3.87,7.78,7.78,0,0,0-1.94-3A8.83,8.83,0,0,0,124,50.13a14.94,14.94,0,0,0-4.8-.68c-.9,0-1.73,0-2.49.07s-1.45.12-2.09.2-1.24.16-1.79.25l-1.61.26V75.29Z"/><path class="cls-4" d="M154,81.14h-7.23v-37H154Z"/><path class="cls-4" d="M171,65.08h-7.23v-21H171Z"/><path class="cls-4" d="M215.66,62.82a25.63,25.63,0,0,1-1.16,8,16.08,16.08,0,0,1-3.41,5.94,14.39,14.39,0,0,1-5.52,3.67A21.15,21.15,0,0,1,198,81.71q-8.5,0-13-4.56t-4.54-13.69V45c1.57-.24,3-.45,4.42-.63s2.71-.34,4-.46,2.57-.2,3.83-.25,2.54-.08,3.87-.08a26.47,26.47,0,0,1,8.74,1.28,14.66,14.66,0,0,1,5.9,3.74,15.14,15.14,0,0,1,3.36,6A28.66,28.66,0,0,1,215.66,62.82Zm-7.53,0a24.79,24.79,0,0,0-.58-5.65,10.55,10.55,0,0,0-1.92-4.2A8.6,8.6,0,0,0,202,50.35a14.87,14.87,0,0,0-5.54-.9c-1.33,0-2.72,0-4.17.16a38.2,38.2,0,0,0-4.48.62V63.12a21.64,21.64,0,0,0,.57,5.12,11.68,11.68,0,0,0,1.8,4.06A8.39,8.39,0,0,0,193.37,75a10.51,10.51,0,0,0,4.67,1,10.18,10.18,0,0,0,4.65-1,8.24,8.24,0,0,0,3.12-2.71,12,12,0,0,0,1.76-4.14A23.32,23.32,0,0,0,208.13,62.82Z"/></g></g></svg>