<svg xmlns="http://www.w3.org/2000/svg" viewBox="0 0 292.25 120.37"><defs><style>.cls-1{fill:#d8b74e;}.cls-2{fill:#9b7d3b;}.cls-3{fill:#fff;}</style></defs><g id="Layer_4" data-name="Layer 4"><path class="cls-1" d="M272.86,14.09C261.81,4.27,248,.29,242.56.17L234.14,0h-88.8L49.82.43a56.67,56.67,0,0,0-19,5.85A57.39,57.39,0,0,0,13.12,20.52C1.26,34.88.3,51.23.06,56.57c-.2,4.42-1,31.67,19.33,49.71,11.05,9.82,24.85,13.8,30.3,13.92l8.42.17h88.8l95.52-.42a56.67,56.67,0,0,0,19-5.85,57.39,57.39,0,0,0,17.73-14.24C291,85.49,292,69.14,292.19,63.8,292.39,59.38,293.16,32.13,272.86,14.09Z"/><rect class="cls-2" x="136.82" y="6.42" width="8.43" height="107.53" rx="4.21"/><path class="cls-3" d="M70.6,96.53H63.22V58.72q0-4.52-2.25-6.92c-1.49-1.61-3.93-2.41-7.3-2.41a51,51,0,0,0-6.62.42q-3.21.42-6.67,1.08l.81-6.17q2.84-.51,6.26-.85c2.27-.22,4.59-.33,6.94-.33A24,24,0,0,1,61,44.4a13.45,13.45,0,0,1,5.1,2.68,12.07,12.07,0,0,1,3.3,4.69,18.1,18.1,0,0,1,1.18,6.87Z"/><path class="cls-3" d="M121.11,44.06l-2.17,18.67a44.65,44.65,0,0,1-1.61,8.15,15.73,15.73,0,0,1-3,5.71,11.67,11.67,0,0,1-5,3.37,21.86,21.86,0,0,1-7.55,1.12H83.61L78,44.06h7.35l3.07,21A16.56,16.56,0,0,0,92,63.33a7.84,7.84,0,0,0,2.32-2.41,11.71,11.71,0,0,0,1.42-3.52,40.14,40.14,0,0,0,.84-5.12l.88-8.22h7.17l-1,8.67a41.91,41.91,0,0,1-1.22,6.7,15.08,15.08,0,0,1-2.38,5,14.4,14.4,0,0,1-4.17,3.72A31.84,31.84,0,0,1,89.33,71L90,75.23h11.2a13.07,13.07,0,0,0,4.25-.61,7,7,0,0,0,3-2.05,10.87,10.87,0,0,0,2-3.78,32.34,32.34,0,0,0,1.17-5.85l2.26-18.88Z"/><path class="cls-3" d="M162.56,68.12a18.91,18.91,0,0,1-.82,5.85,11.34,11.34,0,0,1-2.4,4.23,10,10,0,0,1-3.85,2.58,14.65,14.65,0,0,1-5.22.87,19.62,19.62,0,0,1-3.49-.32,11.53,11.53,0,0,1-3.28-1.1L145.18,75c.65.22,1.38.43,2.2.64a9.71,9.71,0,0,0,2.26.3,4.84,4.84,0,0,0,4.16-2,9.52,9.52,0,0,0,1.44-5.64V61a17.91,17.91,0,0,0-.55-4.53,10.47,10.47,0,0,0-1.75-3.7,8.32,8.32,0,0,0-3-2.5,9.7,9.7,0,0,0-4.43-.92,9.86,9.86,0,0,0-2.28.28,11,11,0,0,0-2.37.85,10,10,0,0,0-2.14,1.38,7.31,7.31,0,0,0-1.61,1.94,6.44,6.44,0,0,0-.42.92,3.21,3.21,0,0,0-.18,1.1V81.08H129.1V51.31a25.1,25.1,0,0,0-.14-2.65,8.05,8.05,0,0,0-.8-2.65l6.06-2.62a14,14,0,0,1,1.19,2,8.85,8.85,0,0,1,.74,2.42c.58-.52,1.22-1,1.91-1.55a13.31,13.31,0,0,1,2.35-1.37,14.71,14.71,0,0,1,2.92-1,16.56,16.56,0,0,1,3.6-.36,16.22,16.22,0,0,1,6.6,1.27,14.05,14.05,0,0,1,4.91,3.51,15.23,15.23,0,0,1,3.07,5.34,21,21,0,0,1,1.05,6.78Z"/><path class="cls-3" d="M203.05,81.08h-7.38V58.72q0-4.52-2.24-6.92c-1.5-1.61-3.93-2.41-7.31-2.41q-2,0-3.9.15t-3.81.42c-1.26.18-2.54.39-3.83.63s-2.6.5-3.94.79l.78-6.27A70.34,70.34,0,0,1,178.73,44a77.43,77.43,0,0,1,8.12-.42,23.54,23.54,0,0,1,6.52.86,13.76,13.76,0,0,1,5.12,2.68,12.41,12.41,0,0,1,3.36,4.69,17.71,17.71,0,0,1,1.2,6.87Zm-24.43,0h-7.41V59.51l7.41-3.59Z"/><path class="cls-3" d="M236.94,66.08a23.09,23.09,0,0,1-1.46,6.52,12.8,12.8,0,0,1-3.15,4.7,12.94,12.94,0,0,1-5,2.83,23.33,23.33,0,0,1-7,1H215l2-5.85h2.26a14.92,14.92,0,0,0,4.38-.57,7.82,7.82,0,0,0,3.12-1.76,8.09,8.09,0,0,0,2-3,16.36,16.36,0,0,0,1-4.3l.91-9.27a4.25,4.25,0,0,0,.06-.67v-.6a6.57,6.57,0,0,0-.41-2.47A3.67,3.67,0,0,0,229.05,51a5.15,5.15,0,0,0-1.94-.85,12.63,12.63,0,0,0-2.67-.25H208.87V30h7.38V44.06h9.52a20.77,20.77,0,0,1,5.06.57,11.1,11.1,0,0,1,3.87,1.76,7.83,7.83,0,0,1,2.47,3,9.89,9.89,0,0,1,.86,4.27c0,.23,0,.45,0,.67s0,.45,0,.69Z"/></g></svg>